# xmcd
#
# Track frame offsets: 
#        150
#        18228
#        34834
#        45179
#        59785
#        82446
#        97578
#        113906
#        133563
#        151415
#        168071
#        183294
#        195894
#        209575
#        225665
#        244132
#        262397
#        272267
#        288021
#
# Disc length: 4084 seconds
#
# Revision: 0
# Processed by: cddbd v1.5.2PL0 Copyright (c) Steve Scherf et al.
# Submitted via: ExactAudioCopyFreeDBPlugin 1.0
#
DISCID=fc0ff213
DTITLE=יזהר כהן  - כמו ציפור  מטורפת
DYEAR=1900
DGENRE=
TTITLE0=Unknown Artist - כמו ציפור מטורפת
TTITLE1=Unknown Artist - כשאת אינך
TTITLE2=Unknown Artist - שדרות בגשם
TTITLE3=Unknown Artist - חלומות שמורים
TTITLE4=Unknown Artist - הבטחה
TTITLE5=Unknown Artist - ירושלים האחרת
TTITLE6=Unknown Artist - כותל בירושלים
TTITLE7=Unknown Artist - אדון עולם
TTITLE8=Unknown Artist - מצדה
TTITLE9=Unknown Artist - מצדה שלי
TTITLE10=Unknown Artist - שיר כלולות
TTITLE11=Unknown Artist - שיר אהבה עתיק
TTITLE12=Unknown Artist - לא אני הוא
TTITLE13=Unknown Artist - ערב ניגונים
TTITLE14=Unknown Artist - צומת דרכים
TTITLE15=Unknown Artist - בא ניפגש
TTITLE16=Unknown Artist - בייב
TTITLE17=Unknown Artist - כנרת
TTITLE18=Unknown Artist - לגעת במים
EXTD=
EXTT0=
EXTT1=
EXTT2=
EXTT3=
EXTT4=
EXTT5=
EXTT6=
EXTT7=
EXTT8=
EXTT9=
EXTT10=
EXTT11=
EXTT12=
EXTT13=
EXTT14=
EXTT15=
EXTT16=
EXTT17=
EXTT18=
PLAYORDER=
